<?xml version="1.0" encoding="UTF-8"?>
<!DOCTYPE svg PUBLIC "-//W3C//DTD SVG 1.1//EN" "http://www.w3.org/Graphics/SVG/1.1/DTD/svg11.dtd">
<svg xmlns="http://www.w3.org/2000/svg" xml:space="preserve" width="7.831in" height="9.42574in" style="shape-rendering:geometricPrecision; text-rendering:geometricPrecision; image-rendering:optimizeQuality; fill-rule:evenodd; clip-rule:evenodd"
viewBox="0 0 1.58485 1.90759"
 xmlns:xlink="http://www.w3.org/1999/xlink">
 <g id="Layer_x0020_1">
  <metadata id="CorelCorpID_0Corel-Layer"/>
  <path d="M0.976751 0.804111c-0.00451294,-0.00392412 -0.0088482,-0.00798211 -0.0131906,-0.0120815l0 -1.59355e-006c-0.0723999,-0.0676941 -0.167182,-0.0751233 -0.239685,-0.00268912 -0.0121915,0.0135763 -0.0131978,-0.0376246 -0.0132687,-0.0435701 -0.0659667,0.0181139 -0.147715,0.0740986 -0.21872,0.0518693 -0.0731042,0.0427455 -0.145056,0.0887195 -0.223352,0.1216 -0.000126687,-0.000381656 -0.00743791,0.00115055 -0.00715346,-0.00501332 0.00226205,-0.0485189 -0.0404101,-0.0953933 -0.0893425,-0.0805836 -0.00873984,0.0184956 -0.0200501,0.0250562 -0.0394062,0.029915 -0.0120704,0.00399822 -0.0156845,0.0137675 -0.0155794,0.0256076 0.0346988,-0.00164216 0.0749695,0.0234555 0.0907823,0.0538286 0.00310982,0.0059822 -0.00606028,0.0107493 -0.00917169,0.00476711 -0.0268546,-0.0515777 -0.0902055,-0.0662974 -0.126191,-0.0204708 0.00443725,0.0155881 0.00859323,0.0451987 -0.00464999,0.0581527 0.0014581,0.01266 0.00790004,0.0240204 0.0156248,0.0338925 0.00644353,-0.00765144 0.0616753,-0.0444219 0.0632919,-0.0237471 0.000606347,0.00775263 -0.0274904,0.00987923 -0.0344072,0.0134249 -0.0183115,0.00938762 -0.0415814,0.0366238 -0.0282162,0.0588141 0.0214253,0.0115851 0.0322416,0.032189 0.0278418,0.0548724 0.0312607,0.0348167 0.0962243,0.0279939 0.120686,-0.0112226 -0.0228037,-0.0281517 -0.0187019,-0.0487117 -0.0145938,-0.0692781 4.78066e-006,0 0.0144535,-0.0173904 0.0101406,0.00202063l4.78066e-006 0c-0.00372891,0.0186677 -0.00745623,0.037333 0.0141986,0.0628696 0.0235161,0.0140328 0.0559592,0.0186031 0.0804784,0.00453286 0.00310265,-0.0247487 0.021713,-0.0374342 0.0440107,-0.0445597 0.0110871,-0.0155993 0.00405081,-0.0432992 -0.000537027,-0.059728l2.39033e-006 0c-0.00493762,-0.0181044 -0.0172972,-0.0341451 -0.0361984,-0.0385178 -0.00656384,-0.00150192 -0.00426275,-0.0115644 0.00230507,-0.0100625 0.0216436,0.00500376 0.0351076,0.0213401 0.0424331,0.0414499 0.0137723,-0.00236085 0.0754077,-0.0254602 0.0790315,-0.0214739 0.0421487,0.0464043 0.113827,0.0702797 0.166449,0.0256283 -0.0138424,-0.00461095 -0.0779654,-0.0431431 -0.0646002,-0.0545075 0.00575034,-0.00488902 0.0382971,0.0301014 0.0482321,0.0358263 0.0499587,0.0287899 0.101563,0.00523801 0.131984,-0.0423805 -0.023277,-0.000114736 -0.0626832,-0.00179354 -0.0737703,-0.0273071 -0.00781239,-0.0179482 0.0948052,-0.0353299 0.107084,-0.0359203 0.0128942,-0.000619892 0.0868478,0.00151308 0.0923416,0.0152917m0 0c0.0129811,0.0264984 0.0333666,0.0403185 0.0625884,0.0384357l0 3.98388e-006c0.0119485,-0.00019282 0.000767296,0.010288 0.000767296,0.0103023 -0.00809525,0.000619892 -0.0160335,-0.000491611 -0.0239607,-0.00193139 0.00629214,0.031589 0.0424977,0.0390253 0.0697004,0.0406738 0.00672161,0.00039042 0.00612243,0.0106967 -0.000606347,0.0103063 -0.034545,-0.00209154 -0.0756507,-0.0137301 -0.0800187,-0.0541609 -0.0175857,-0.00672161 -0.0287007,-0.0208516 -0.0368963,-0.0374087 -0.0619438,-0.0181992 -0.120647,-0.0135556 -0.17905,0.0145388 0.0138153,0.0182382 0.0513395,0.0172391 0.0709027,0.0167801 0,0.000716302 0.00798211,0.00179753 0.00458784,0.00771758 -0.0170375,0.0295644 -0.0423853,0.0571169 -0.0765144,0.0659492 0.00853826,0.0115413 0.0238507,0.017455 0.0380015,0.0158176l0 4.78066e-006c0.0151794,-0.00173618 0.054572,0.0396428 0.0626665,0.0512694 0.0356087,0.0511602 -0.00642999,0.0939264 -0.00161905,0.147552 0.00165172,0.0183761 0.00768411,0.0353952 0.015977,0.0555855 0.0024955,0.000369704 0.00441095,0.002521 0.00441095,0.0051161 0,0.0618474 0.0155674,0.106311 0.0503419,0.155573 0.0238834,0.033769 0.0425072,0.0601112 0.0215592,0.119293 0.035294,0.000806338 0.0914667,-0.0504224 0.102912,-0.0816082 -0.0333921,-0.0255359 -0.0595136,-0.0523442 -0.064111,-0.0967 -0.000801557,-0.0066252 0.00932069,-0.00794067 0.0102346,-0.00132504 0.0143715,0.102561 0.1419,0.132109 0.228545,0.11997 0.0265621,-0.00372254 0.0479444,-0.0111764 0.0586316,-0.0208947 0.000231862,0.000309946 0.00700207,-0.00364286 0.00848567,0.00262697 0.00613837,0.0254737 0.0509985,0.218075 -0.0375792,0.187025 -0.0526104,-0.018447 -0.0754436,-0.0965119 -0.139544,-0.0747305 -0.0317635,0.0107891 -0.0135874,0.0222205 -0.0174367,0.0484591 -0.00269549,0.0183346 -0.0241168,0.0310336 -0.0148599,0.0499316 0.0192533,-0.0143276 0.0543497,-0.00998998 0.0749942,-0.00235607 0.0063288,0.00231703 0.00277438,0.012017 -0.00355522,0.00969996 -0.0469548,-0.017361 -0.0751384,-0.00720844 -0.0798003,0.0375345 0.0224428,0.0280832 0.00136408,0.0776307 0.0469206,0.0872391 -0.00159355,-0.0557042 0.0201441,-0.0818146 0.0787582,-0.0792952 0.00671922,0.00028684 0.00628258,0.0105931 -0.000445398,0.0103063 -0.0532844,-0.00228994 -0.0696024,0.0196613 -0.067965,0.0699028 0.0346916,0.00254411 0.0543402,0.0188653 0.057089,0.0551808 0.0249295,0.0148758 0.062488,0.0207409 0.0895744,0.00683873 0.043512,-0.0223217 0.0477173,-0.0850503 0.0464863,-0.127226 -0.00403249,-0.0156845 0.00972784,-0.0206708 0.0103246,0.000141826 0.0110959,0.0329013 0.0686997,0.0592826 0.102297,0.0565472 0.0233679,-0.00190828 0.0445024,-0.0162495 0.0549712,-0.0521124 -0.0159347,-0.0181697 -0.00893744,-0.0447302 -0.0043512,-0.0653062 -0.019768,-0.0364621 -0.0493547,-0.0380835 -0.0828847,-0.0178701 -0.000505156,-0.000758531 -0.00694231,0.00250028 -0.00777813,-0.00373927 -0.00563799,-0.0410547 0.0517705,-0.0925432 0.0906875,-0.0923942 0.00288433,-0.0296536 0.00168598,-0.0412204 0.000369704,-0.0539218 -0.000718692,-0.00694869 -0.00690725,-0.0378979 0.00310982,-0.0385959 0.0703211,-0.00521331 0.122829,-0.0271964 0.106499,-0.104421 -0.0300488,0.0160542 -0.0760826,0.0131835 -0.110373,0.0225671 -0.00603718,0.00185091 -0.00942507,-0.00704589 -0.00361258,-0.0096386 0.0337204,-0.015071 0.0760874,-0.00918763 0.111075,-0.0231822 0.0287445,-0.0201505 0.0484687,-0.0813413 0.0182175,-0.108241 -0.0348892,0.0572675 -0.1119,0.021258 -0.152751,0.0682312 -0.00246602,0 -0.00928404,0.00497587 -0.00905218,-0.00351617 0.0011115,-0.0379297 -0.0389847,-0.0824664 -0.0786323,-0.0709617 -0.055031,0.015965 -0.0769343,0.089372 -0.143342,0.0851029 -0.0575599,-0.00369226 -0.068475,-0.0695602 -0.075038,-0.11441 -0.00611526,-0.0417575 -0.0132153,-0.090215 -0.0478847,-0.140794 -0.00812473,-0.0093924 -0.00278792,-0.021501 0.00328591,-0.013193l7.17099e-006 -3.98388e-006c0.0254721,0.0346646 0.0905664,0.0513315 0.131121,0.0454617l0 7.17099e-006 0.000546589 -4.78066e-005c0.173674,-0.00628816 0.218505,-0.0967876 0.214647,-0.20336 -0.00326599,-0.0902039 -0.0358796,-0.178069 -0.0648122,-0.262486l4.78066e-006 -2.39033e-006c-0.0305978,-0.107096 -0.0508566,-0.207724 -0.0615948,-0.318314 -0.00614713,-0.0633302 0.0254403,-0.121324 0.0914691,-0.131316 0.0407312,-0.00617502 0.0744938,0.0164518 0.079488,0.0594841l0.0693865 0c-0.00559895,-0.145754 -0.233367,-0.142068 -0.291903,-0.0307468 -0.0128066,0.0302002 -0.0176382,0.0617924 -0.0176382,0.0944451l-1.83259e-005 0c0,0.10973 0.0328869,0.217577 0.0620697,0.322321 0.0367386,0.131978 0.156896,0.372475 -0.0648417,0.408308 -0.0446402,0.00719489 -0.0874247,-0.0202883 -0.119963,-0.0476162l8.76454e-006 -1.11549e-005c-0.0467501,-0.0467509 -0.0731775,-0.145499 -0.0781765,-0.209661m0.401178 -0.467813c-0.120298,0.0569512 -0.0685459,0.217453 0.0218253,0.280666 0.0275159,0.019235 0.0213974,0.0751026 0.00856774,0.101456 0.0293596,0.0194302 0.06277,-0.0371282 0.0667157,-0.0568659 0.00382771,-0.0421144 -0.00657022,-0.0666352 -0.0316376,-0.0986863 -0.0119007,-0.0152113 -0.0227854,-0.0291325 -0.0252172,-0.0478321 -0.000868486,-0.0066738 0.00935575,-0.00800123 0.0102234,-0.00133221 0.00448027,0.034467 0.0485141,0.0664336 0.0561361,0.106012 0.00220707,0.0117254 0.00245965,0.0234651 0.00156407,0.0353394 0.0345745,-0.008108 0.0386692,-0.0451589 0.0386692,-0.0751982 -0.00747217,-0.0336287 -0.0155555,-0.0542023 -0.0384301,-0.0794267 -0.0117214,-0.0129213 -0.0217982,-0.024034 -0.0245495,-0.0451724 -0.00086769,-0.0066738 0.00935575,-0.00800123 0.0102242,-0.00133221 0.00275127,0.0211592 0.0175976,0.0340008 0.0302345,0.0489372 0.0132799,0.0158057 0.0237655,0.0347028 0.0283676,0.0549529l2.39033e-006 0 1.11549e-005 5.09937e-005 2.39033e-006 0 1.19516e-005 5.01969e-005 2.39033e-006 0 2.47001e-005 0.000103581 2.39033e-006 0 9.16293e-005 0.000357753 2.39033e-006 0 0.000105971 0.000411137 2.39033e-006 0 7.80841e-005 0.000309946 2.39033e-006 0c0.000899561,0.00396396 0.00189394,0.00789048 0.00268673,0.0118815 0.021313,-0.0133349 0.0262872,-0.05676 0.0218851,-0.0787757 -0.00138081,-0.00764029 -0.0096633,-0.0165618 -0.0192103,-0.0268458 -0.0168964,-0.0182016 -0.0374063,-0.0402994 -0.0365195,-0.0722174 0.000183259,-0.006724 0.0104896,-0.00644194 0.0103063,0.000284449 -0.00140551,0.0506503 0.0352773,0.0519243 0.0532079,0.0898174 0.0500479,-0.0441048 0.00407153,-0.127256 -0.048142,-0.145579 -0.00468505,0.00293931 -0.0101709,0.00451932 -0.0157053,0.00451932l-0.100115 0c-0.00850559,0 -0.0140448,-0.00588579 -0.0214277,-0.00588579zm-0.592252 -0.334641c-0.00242618,3.98388e-006 -0.00481173,-0.000496392 -0.00697418,-0.00119198 -0.00258315,-0.000831835 -0.00503164,-0.000487627 -0.00705864,0.000548979 -0.00386118,0.00197282 0.00336877,0.0174478 0.000869283,0.0204182 -0.00378867,0.0044978 -0.020968,-0.00140153 -0.0221799,0.000346598 -0.00288831,0.00416555 -0.00213695,0.0213225 -0.00048205,0.0238818 0.00139356,0.00216325 0.0123022,-0.000109158 0.0184804,-0.00127723 0.00224771,-0.000424682 0.00408826,-0.00151786 0.00422849,0.00156646 0.000231065,0.00513124 0.00077367,0.0117309 -0.00127405,0.0171124 0.00500216,0.000697976 0.00954458,0.00491531 0.013781,0.00637899 0.00445239,-0.00342694 0.0095653,-0.00552724 0.014428,-0.00690566 0.000109955,-0.00535354 -0.000906732,-0.0119214 -0.000705944,-0.0165857 0.000136249,-0.00308512 0.00198557,-0.00199114 0.00423168,-0.00156646 0.0061798,0.00116568 0.0170909,0.00344128 0.0184836,0.00127723 0.0016565,-0.00256084 0.00240706,-0.0197154 -0.000480456,-0.0238818 -0.00121668,-0.00174972 -0.0183912,0.004152 -0.0221831,-0.000346598 -0.00250028,-0.00297198 0.00472887,-0.0184446 0.000869283,-0.0204182 -0.0020262,-0.0010382 -0.00447549,-0.00138081 -0.00705785,-0.000548979 -0.00216165,0.000693195 -0.00455119,0.00119755 -0.00697578,0.00119357l0 -1.59355e-006zm0.0300464 0.11818c0.00176725,0.000767296 0.00342694,0.0016071 0.00495436,0.0025202 0.00104696,-0.00261183 0.00181984,-0.00572404 0.00225089,-0.00906333l-0.00720525 0.00654313zm0.249256 0.363459l0.000633437 0.00119835c0.0410786,0.00410579 0.0737496,-0.000544198 0.0830384,-0.0471636 -0.0508957,-0.00296959 -0.066938,-0.00587463 -0.0847977,-0.0517984l-6.37421e-006 2.39033e-006c-0.00858447,-0.0230356 -0.0160662,-0.051302 -0.036929,-0.065397 -0.00446434,-0.00300863 -0.064256,-0.0425463 -0.0876844,-0.0286529 -0.00226444,0.03827 0.00975095,0.07414 0.0583934,0.08128 0.0142264,0.00208277 -0.0103955,0.0292194 -0.0144217,0.0329674 0.0385919,0.0171514 0.0633262,0.0426514 0.081774,0.0775638zm-0.0941352 -0.0806481c0.00750484,-0.00557584 0.0135715,-0.0128257 0.0182055,-0.0209114 -0.0517315,-0.0107724 -0.0629238,-0.0520893 -0.0599319,-0.0937559l4.78066e-006 0c0.000241423,-0.00281581 0.00216325,-0.00384206 0.00440697,-0.00512566l2.39033e-006 2.39033e-006c0.0302504,-0.0172853 0.0407105,-0.0694693 0.0189314,-0.0961167 -0.0440705,0.00613358 -0.0523402,0.0427614 -0.0509483,0.0822186 0.000596786,0.0171546 -0.059865,-0.00498304 -0.0484313,-0.0171426 0.00336638,-0.00357992 0.027782,0.0125014 0.0379983,0.0124441 -0.000521092,-0.0373122 0.0088482,-0.0753543 0.0489922,-0.0856359 -0.0213058,-0.00749528 -0.0509459,-0.00323093 -0.0718987,0.00579655l-4.78066e-006 -9.56132e-006c-0.0112521,0.00464839 -0.0259885,0.0413129 -0.0199672,0.0524024 0.00515992,0.00948642 -0.0223719,0.011629 -0.00658854,-0.0301636 0.00386755,-0.0102354 0.00989517,-0.0205417 0.0173522,-0.0278187 -0.00974856,-0.0126098 -0.105348,-0.00379186 -0.122409,-0.00246443 -0.00519897,0.000420698 -0.0422013,0.00360143 -0.0422013,0.00408985 -0.00363489,0.0420252 -0.0867929,0.0045241 -0.0748101,0.05765 0.00341897,-0.000530653 0.0429956,-0.0058834 0.0430275,0.0044253 3.50582e-005,0.0119501 -0.0488121,-0.00174574 -0.0613462,0.0167427 -0.00798051,0.011758 -0.00382373,0.0566898 0.00434243,0.067083l-1.11549e-005 9.56132e-006c0.00816377,0.0102282 0.0572635,0.0106664 0.0685706,0.00635668 0.0327475,-0.0125365 0.0640178,-0.0272195 0.0814545,0.0166255 0.010919,0.0274976 0.00447071,0.0573121 0.00142623,0.0855738 -0.00681881,0.0633724 -0.112256,0.0405272 -0.149706,0.0176343 -0.00144934,0.01622 -0.00725465,0.0318376 -0.0160248,0.0455039 0.00234013,0.000229472 0.00431534,-0.000307556 0.00648098,-0.000918683l0 2.39033e-006c0.00493284,-0.00139834 0.0226906,0.00397512 0.0287899,0.00467309 0.0320448,-0.00789924 0.0629541,-0.00239033 0.0920548,0.0123803 0.0208421,0.00326997 0.044006,-0.00658217 0.0668878,-0.00412252 0.0441852,-0.0200357 0.0600259,-0.0606944 0.0580213,-0.107096l0.0103063 -0.000445398c0.00192661,0.0446306 -0.011707,0.0867307 -0.0515706,0.110451 0.0393878,0.00934141 0.0694207,0.0351673 0.0888509,0.0729433 0.0149953,0.00489619 0.0285397,0.0112226 0.0407224,0.0186748 -0.00138081,-0.0319523 -0.0131978,-0.0607956 -0.0410125,-0.0784506 -0.0167403,-0.0106115 0.0296146,-0.0118951 0.030499,-0.012068 0.0277183,-0.00538701 0.0499427,-0.021207 0.0589511,-0.0492209 -0.0287557,-0.00155929 -0.0612705,-0.00888246 -0.0664878,-0.0424977 -0.000709928,-0.00461812 0.00523323,-0.00591128 0.00523323,-0.00594077 0.0189983,0.000541808 0.0360055,-0.00307078 0.0518375,-0.0137787zm0.100772 -0.0257566l4.78066e-006 0 0.000741799 0.0019768c0.0393647,0.00330503 0.0678431,-0.00496471 0.0763352,-0.0479835 -0.0418499,-0.00577344 -0.0635103,-0.0243814 -0.0851443,-0.0575002 -0.0223464,-0.0342008 -0.0485739,-0.0637214 -0.0920476,-0.0622099 0.00344685,0.0237909 -0.00065256,0.0501698 -0.0175147,0.0684335 0.0281979,0.00367633 0.0556285,0.016408 0.0787048,0.0319635 0.0211823,0.0143141 0.0305038,0.0427319 0.0389201,0.0653197zm-0.00197999 0.245954c0.0409527,-0.000423088 0.0839763,-0.0167435 0.0941606,-0.0604785 -0.053302,0.00260148 -0.0841109,-0.0291397 -0.107916,-0.074191 -0.0198867,-0.0376907 -0.0430554,-0.0578946 -0.0817198,-0.0752531 -0.014424,0.00966968 -0.0316607,0.0135117 -0.0488289,0.0138448 0.00785383,0.0250746 0.0397623,0.0274051 0.0615964,0.0280577 0.0209759,-0.000335443 -0.0185115,0.0491778 -0.0282115,0.0555783 0.0231392,0.00940834 0.0437494,0.0244331 0.0633676,0.039599 0.0226173,0.017412 0.0314862,0.0497842 0.0475516,0.0728429zm-0.363587 -0.379296c-0.00635429,0.00531211 -0.0125938,-0.0058579 -0.0026198,-0.0104003 -0.000852551,-0.00550413 -0.00116728,-0.0110919 -0.00074658,-0.016651 -0.0160224,0 -0.00338471,-0.0108736 -0.00338471,-0.0108784 0.0225918,0.00233057 0.044888,0.00940834 0.0593073,0.0280808 -0.0170534,0.0170534 -0.0405663,-0.000188039 -0.0525562,0.00984895zm0.0772746 0.276693c-0.0174574,-0.00181824 -0.0348159,6.21486e-005 -0.0516694,0.00475835l3.42614e-005 2.78872e-005c-0.0259422,0.00720366 -0.0496001,0.020227 -0.0740476,0.0311532 -0.0730636,0.0326184 -0.129776,0.0410555 -0.207055,0.0310799 -0.00077606,0.0380238 0.016851,0.0597917 0.054772,0.065746 -0.00212182,-0.00463166 -0.0154638,-0.0309141 -0.00308193,-0.0309141 0.077716,0.00386516 0.121662,-0.00887768 0.167699,-0.0222293 0.0648209,-0.0187936 0.139824,-0.0370804 0.206726,-0.0181553 -0.0240993,-0.0355625 -0.0538055,-0.057489 -0.0933798,-0.0614641l2.39033e-006 -2.39033e-006zm-0.0726126 0.00154097c-0.0712995,-0.0344415 -0.116745,0.00967765 -0.18522,0.0263446l0 4.78066e-006c-0.0468608,0.0114106 -0.0931543,0.0108051 -0.140817,0.0110943l6.93195e-005 0.00113859 2.39033e-006 0c0.000987206,0.0148145 0.00456234,0.0307197 0.0148575,0.0420037l2.39033e-006 0c0.00998202,0.0112967 0.033181,0.0196509 0.0479628,0.0187529 -0.00275286,-0.00586029 -0.0157053,-0.0460752 -0.00129078,-0.0448195l2.39033e-006 -8.76454e-006c0.0778331,0.00960355 0.132924,0.00361418 0.207158,-0.0295277 0.0190031,-0.00850081 0.0373927,-0.0186031 0.0572731,-0.0249829zm-0.0844766 -0.0945391c-0.00274649,0.00615271 -0.00446832,0.0131747 -0.0053639,0.0208867 0.00898764,0.00423407 0.0185665,0.00707697 0.0282139,0.00936212 -0.0077622,-0.0131125 -0.0126998,-0.0276147 -0.0147045,-0.0427247 -0.00337993,0.0036325 -0.00606666,0.00781877 -0.00814545,0.0124759zm0.122719 -0.0117341c-0.00885458,-0.000285246 -0.0171315,-0.00339666 -0.0243328,-0.00854941 -0.0560875,-0.0428905 -0.123504,0.000810322 -0.183939,-0.0255391 -0.0439096,-0.0191338 -0.0418108,-0.0648002 -0.0266107,-0.103547 -0.0364812,0.00285644 -0.0587559,0.0188557 -0.0619207,0.0563656 -0.00628736,0.0752579 0.103783,0.0660424 0.154253,0.0650186 0.0483213,-0.00097127 0.0906373,-0.000686821 0.121485,0.040442l1.4342e-005 -8.76454e-006c0.00364207,0.00530414 0.00651922,0.0106091 0.00898126,0.015824 0.010864,-0.00943543 0.0104091,-0.0266498 0.0120696,-0.0400053zm-0.124402 -0.0726891c0.000810322,0.0111748 0.00349705,0.0228723 0.0107931,0.0316958 0.00157045,-0.0102609 0.00466433,-0.0202453 0.0092681,-0.0295485 -0.00671204,-0.000356159 -0.0134297,-0.00103979 -0.0200612,-0.00214731zm0.0665061 -0.193037c-0.00103262,0.000528263 -0.00208277,0.00107485 -0.00291142,0.0019035l1.11549e-005 9.56132e-006c-0.00194971,0.00221344 -0.000929838,0.0168964 -0.000337036,0.0189386 0.0666121,-0.00218396 0.125503,-0.0136018 0.192614,-0.000548979 0.000689212,-3.66517e-005 0.00131548,-7.80841e-005 0.00182781,-0.000142623 0.000528263,-0.00362374 0.00479022,-0.0187115 -0.000661324,-0.0201122 -0.0635692,-0.0114728 -0.126944,-0.0109788 -0.190544,-4.78066e-005zm0.142542 -0.0168813c0.0274099,-0.0474074 0.00712318,-0.0825444 -0.0422841,-0.0581822l0 0.0561018c0.0140288,0.000112345 0.028076,0.000799167 0.0422841,0.00208038zm0.0250953 -0.0354406c-0.00157523,0.0100952 -0.00602363,0.0222412 -0.0138934,0.0365657 0.0113373,0.0014581 0.0225599,0.00311858 0.0338606,0.00480695 0.0398293,-0.0496926 0.0217472,-0.0959422 -0.0428785,-0.0807652 0.0186055,0.00543322 0.0257932,0.0209202 0.0229113,0.0393926zm-0.0777224 0.0333786l0 -0.0557114c-0.0149133,-0.00728652 -0.0266179,-0.011558 -0.0438139,-0.00658854 -0.0296146,0.00856614 -0.00869124,0.0485372 0.000627063,0.0645891 0.0144009,-0.0013338 0.0287349,-0.00194015 0.0431869,-0.00228914zm-0.0543888 0.00343729c-0.0131213,-0.0237376 -0.0287031,-0.0655787 0.00868486,-0.0759105 -0.0641317,-0.0144966 -0.0901043,0.0294265 -0.0472552,0.0814911 0.0116521,-0.00334805 0.0264657,-0.00422052 0.0385704,-0.00558062zm-0.0131054 0.0963263c0.0092681,-0.00109318 0.0188374,-0.000229472 0.0281031,0.000408746 -0.0083056,-0.00662281 -0.0183689,-0.0106003 -0.028668,-0.0128879 -0.000252578,0.00416316 -2.07162e-005,0.00835261 0.000564914,0.0124791zm-0.187987 0.306882c0.0273111,-0.00684272 0.0523379,-0.0172869 0.0782299,-0.0280664 -0.00195449,-0.000525872 -0.00368589,-0.0011115 -0.00513522,-0.00177044 -0.0503555,0.01393 -0.101382,0.0103151 -0.150518,-0.00573201 -0.00173857,0.0160981 0.00188039,0.0318145 0.00972306,0.0459286 0.0209042,-0.00132743 0.0430809,-0.00420698 0.0677005,-0.0103756l0 1.59355e-005zm-0.151256 0.0157905c0.00132265,-0.00807214 0.0640768,-0.0045241 0.0722174,-0.00484759 -0.00379983,-0.00771359 -0.0185179,-0.0654918 -0.000642999,-0.0581408 0.00940196,0.00324925 0.0187641,0.00600769 0.0280832,0.00826257 -0.0511754,-0.0230611 -0.099405,-0.0523147 -0.146433,-0.0828002 -0.00521809,-0.00338949 0.000378469,-0.0081311 2.07162e-005,-0.00866893 0.0439462,-0.0283334 0.0549832,-0.0576189 0.0211361,-0.098468 -0.0146878,0.00435837 -0.0339411,-0.0063774 -0.0461788,-0.0132552 0.0014836,0.0123644 0.00147404,0.0783494 -0.0122839,0.0751551 -0.00880677,-0.00204373 0.00251941,-0.041712 0.0028915,-0.0509825 0.00177044,-0.0437701 -0.0277661,-0.0711752 -0.0708422,-0.0698231 -0.0126624,0.0165961 -0.0306066,0.0261908 -0.0514741,0.0272888 -0.00983621,0.011656 -0.0147069,0.0255128 -0.00804027,0.0400611 0.0098378,0.00425718 0.0613032,0.0452553 0.0478783,0.0542342 -0.00724748,0.00484759 -0.0245025,-0.0242475 -0.0302098,-0.0296927 -0.0202078,-0.019274 -0.0795868,-0.0361617 -0.0910341,-0.000537027 0.00580053,0.0273087 -0.00424204,0.0375186 -0.0165459,0.0498846 0.00151547,0.0203258 0.00676304,0.0358637 0.0147706,0.0463055 0.0172367,0.0224842 0.0545903,0.0195816 0.0744588,0.00271621 0.0051416,-0.00434881 0.0118106,0.00353211 0.00666902,0.00788171 -0.012899,0.0109445 -0.0293899,0.0167889 -0.0463238,0.0157324 -0.00881792,0.0113676 -0.0111668,0.0250769 -0.00890079,0.0391408 0.016424,0.00960753 0.0263335,0.024826 0.0240435,0.0442538 0.0373561,0.0260323 0.114431,0.0102306 0.11602,-0.042798 0.000229472,-0.00768889 -0.00118959,-0.0184055 -0.00824664,-0.023093 -0.00561488,-0.00371776 8.52551e-005,-0.0123245 0.00569934,-0.00860678 0.0192007,0.0127636 0.0145595,0.0471978 0.00294011,0.0633533 0.0415121,0.0176685 0.096555,0.039352 0.126969,0.0743305 0.00247558,-0.00171705 0.00496073,-0.00347155 0.00745862,-0.00527466 -0.00853348,-0.0115851 -0.01226,-0.0260251 -0.0135922,-0.0401551 -0.0324392,-0.0132687 -0.0615095,-0.0363705 -0.0879322,-0.0589216 -0.00511451,-0.0043743 0.00159355,-0.012217 0.00671045,-0.00784028 0.0245096,0.0209162 0.0510742,0.0420666 0.0807142,0.055305zm0.626273 0.152297c-0.00777096,-0.0210381 -0.0456776,-0.0911472 -0.0685435,-0.0914365l4.78066e-006 -0.000528263c-0.0782761,-0.0471317 -0.176859,-0.0276952 -0.259124,-0.00384206 -0.0454808,0.0131882 -0.0889513,0.0257956 -0.163934,0.0229456 0.0139691,0.0465923 0.0497332,0.056168 0.0959351,0.0543402 0.0539888,-0.0257909 0.113646,-0.0445892 0.174124,-0.0356796 0.0382054,-0.0108385 0.0820002,-0.0078857 0.120669,-0.00278075 0.0427391,0.00564277 0.0705052,0.0291254 0.100868,0.0569815zm-0.0534876 -0.188367c-0.00380301,-0.00108601 -0.0304305,0.00836854 -0.038709,0.00908724 0.0248793,0.0215265 0.0339188,0.0531275 0.0339738,0.0852176 0.0361657,0.0257088 0.0610912,0.0640752 0.0731361,0.106515 0.0490974,0.0130456 0.138164,0.0124209 0.148794,-0.0520924 -0.0626784,0.00462051 -0.0915026,-0.0122672 -0.120858,-0.0677945 -0.0204429,-0.0386883 -0.0533824,-0.0680089 -0.0963366,-0.0809334zm-0.363195 0.180079c-0.0279493,-0.00146049 -0.0567878,-0.00941312 -0.0727847,-0.0338973 -0.0118592,-0.000774467 -0.0164263,-0.00362852 -0.0273533,0.00188039 -0.029821,0.015122 -0.0640465,0.0290313 -0.0982202,0.0258442 -0.00249789,0.027488 0.028621,0.0410507 0.0499571,0.0449868 -0.000721083,-0.00228515 -0.00139914,-0.00464361 -0.00203975,-0.00707059 4.78066e-006,0 0.000760125,-0.00877968 0.00704988,-0.00604196 0.0448243,0.0196318 0.102864,-0.00648735 0.143391,-0.0257016zm0.214254 -0.0408603c-0.0629127,0.0174645 -0.0843802,0.0531482 -0.0745257,0.118945 0.0821612,-0.0753017 0.183282,-0.0532677 0.255564,0.0170446 0.0671404,0.0671404 0.173638,0.0776969 0.209402,-0.0246865 -0.115225,0.0186302 -0.157842,-0.0204548 -0.198339,-0.0576221 -0.0253502,-0.0232627 -0.0498439,-0.0457421 -0.0918707,-0.0512909 -0.0416459,-0.00549537 -0.0746038,-0.00593359 -0.10023,-0.00239033zm-0.188828 0.0399599c-0.0469548,0.0228037 -0.109039,0.0556564 -0.162947,0.039701 0.041026,0.116403 0.195088,0.0172805 0.264484,-0.00106609l5.25872e-005 -2.23097e-005c0.00188517,-0.0328758 0.0165961,-0.0602403 0.046468,-0.0753161 -0.0516853,-0.00235846 -0.102043,0.0146463 -0.148057,0.0367035zm-0.213994 -0.0837619c-0.0468815,0.0339738 -0.104457,0.0642401 -0.164238,0.0592595 0.00437749,0.0227966 0.0270155,0.0583336 0.0538836,0.049079 0.0598515,-0.0209385 0.1126,-0.0615374 0.174094,-0.0771391 -0.00454959,-0.00446195 -0.00829285,-0.0097143 -0.0111031,-0.015432 -0.0186796,0.000716302 -0.0384285,-0.00271223 -0.0526366,-0.0157674zm0.0744221 0.0394157c-0.0234922,0.00444123 -0.0489938,0.0158893 -0.0755981,0.0291875 0.0289604,0.000340224 0.0575854,-0.0114592 0.0829954,-0.0241814l0.000341817 -0.00104218c-0.00265645,-0.00115294 -0.00525394,-0.00247558 -0.00773909,-0.00396396zm-0.0945383 0.0388078c-0.0478464,0.0245694 -0.10181,0.0543537 -0.157672,0.0522088 0.030891,0.0851077 0.166647,0.0309882 0.21951,0.00376636 -0.0286178,-0.00452171 -0.0642449,-0.0217424 -0.0618378,-0.0559751zm-0.00331618 0.0947064c-0.0241607,0.00794784 -0.049934,0.0133811 -0.0754356,0.0131723 0.0118887,0.0350295 0.0498392,0.0473038 0.0831149,0.0518598 0.0301699,-0.0124026 0.0743145,-0.0368182 0.100225,-0.0578515 -0.0160383,-0.00806019 -0.0282648,-0.0213608 -0.0365338,-0.0375027 -0.0256395,0.0132942 -0.0494766,0.0232858 -0.0713705,0.0303221zm-0.263774 -0.274027c-0.0130871,0.00995253 -0.028519,0.0154431 -0.0448211,0.0168303 0.0157324,0.0192485 0.04114,0.0205481 0.0640106,0.0173147 0.00190111,-0.0153579 -0.00633119,-0.0266657 -0.0191896,-0.0341451zm-0.0287596 -0.168023c-0.023077,-0.0136982 -0.050616,-0.016961 -0.0645301,0.0106553 0.0227671,-0.00133858 0.041414,0.00687379 0.05398,0.0261749 0.00846495,-0.00881394 0.0145157,-0.0175769 0.0105501,-0.0368302zm0.133472 -0.0985095c-0.0123014,-0.0244937 -0.0361848,-0.0272976 -0.0602419,-0.0198501 0.0110138,0.0112824 0.0176159,0.0258849 0.0201027,0.0413766 0.0161029,-0.00126528 0.030044,-0.00900198 0.0401392,-0.0215265zm0.132942 0.0537386c0.012456,-0.0266888 -0.01266,-0.0475197 -0.0324137,-0.060559 0.00427789,0.0167251 0.00193139,0.0326487 -0.00941551,0.0461421 0.00937886,0.00547943 0.0299429,0.0182701 0.0418292,0.0144169zm-0.201486 1.40589c-0.0354247,-0.00281103 -0.0628067,0.00798928 -0.0587081,0.048209 0.0188191,-0.00982425 0.0392412,-0.0112967 0.0582125,-0.000836615 0.0064021,-0.0136177 0.0152686,-0.0354382 0.000495595,-0.0473723zm0.236766 -0.593285c0.00019282,-0.0106967 -0.0033114,-0.0223257 -0.0100107,-0.0347562 -0.0168694,0.00525155 -0.0332543,0.0138639 -0.0371903,0.0324527 0.0146487,0.00670169 0.0267215,0.0175745 0.0360494,0.0306026 0.00740126,-0.00869921 0.01097,-0.0181649 0.0111517,-0.0282991zm1.03553 0.642991c0.0201808,-0.0107868 0.0457764,-0.0206381 0.0655444,-0.00354167 0.00934619,-0.0445757 -0.032024,-0.0498846 -0.0672965,-0.0503324 -0.00441892,0.0197648 -0.00887848,0.0405543 0.00174972,0.053874l2.39033e-006 0zm-0.414157 -0.142719c-0.0295365,-0.00127883 -0.0638019,0.00570731 -0.0733799,0.0378708 0.021756,-0.00587702 0.0479994,-0.00682041 0.0662145,0.00869203 0.0115676,-0.0130305 0.0110919,-0.0306066 0.0071678,-0.0465628l-2.39033e-006 0zm-0.0169132 0.132019c-0.0360175,-0.00141906 -0.0634895,0.0162104 -0.0566325,0.0551664 0.0192031,-0.0141157 0.0436665,-0.0215193 0.0670854,-0.0143842 0.000151388,-0.0150025 -0.00139595,-0.0282712 -0.0104529,-0.0407822zm0.0594563 0.0890183c-0.0207385,0.0191959 -0.0198158,0.0493061 -0.0122233,0.0741902 0.0163753,-0.0182773 0.0389496,-0.0263327 0.0626505,-0.0299891 -0.00291381,-0.031977 -0.0204955,-0.0425064 -0.0504272,-0.0442012zm-0.882507 -1.00277c-0.0198963,-0.022932 -0.0445302,-0.0289373 -0.0689961,-0.00917169 0.0166789,0.00629214 0.0295939,0.0158654 0.0365171,0.0328933l0.000176884 -5.01969e-005 -1.59355e-006 -9.56132e-006c0.0160104,-0.00401416 0.0249662,-0.00839802 0.0323037,-0.0236619zm-0.0820656 0.247662c-0.0258897,0.00690965 -0.03133,0.0297915 -0.0319475,0.0534008 0.0164933,-0.00908245 0.0349243,-0.0140559 0.0538326,-0.0126464 0.00237678,-0.0171681 -0.00615191,-0.0317476 -0.0218851,-0.0407543zm-0.0164463 -0.142128c-0.0232284,0.00490097 -0.057195,0.0148328 -0.0638776,0.041469 0.0202039,-0.00258793 0.0407384,-0.00147404 0.0608984,0.000927448 0.00105174,-0.00109079 0.00180311,-0.0024222 0.00241423,-0.00379823l1.59355e-006 0c0.00498145,-0.0116266 0.0032636,-0.0261677 0.000563321,-0.0385982zm0.307759 0.530524l-6.37421e-006 9.56132e-006c0.0440753,0.0330567 0.102896,0.0505005 0.155704,0.0623748 0.0189752,0.0030891 -0.0326798,0.0844328 -0.0409591,0.0937081 -0.020752,0.0232444 -0.0492559,0.03965 -0.0924532,0.0473747 -0.0838838,0.0149866 -0.0431136,-0.120396 -0.138952,-0.0874247 -0.00248913,0.0416363 -0.0776212,0.0355625 -0.063974,0.0734787 0.0147388,-0.00223416 0.0900525,0.0186788 0.076379,0.0353076 -0.00513204,0.00624195 -0.0365864,-0.0192119 -0.0467293,-0.0224771 -0.0268593,-0.0086506 -0.0598451,-0.000321898 -0.0710007,0.0274721 0.0219791,0.0166168 0.0117023,0.0442354 0.00125333,0.0650871 -0.00185968,0.02383 0.00761718,0.0425574 0.0319691,0.0477683 -0.00434721,-0.0778578 0.0504455,-0.0955271 0.118367,-0.0829054 0.00661563,0.00120951 0.00475994,0.0113557 -0.00186047,0.0101454 -0.0622099,-0.011558 -0.109048,0.00245009 -0.106304,0.0696024 0.0382811,-0.0196461 0.0613948,0.0189497 0.0503005,0.0534008 0.0331515,0.0331507 0.0894852,0.0392181 0.110585,-0.0098378 -0.00536709,-0.0226428 -0.00641405,-0.0415678 0.00269549,-0.0641046 3.74485e-005,0 0.013538,-0.0079845 0.00967765,0.00355681 -0.0223607,0.0662751 0.0225392,0.0913472 0.0801039,0.0814887 0.0103772,-0.0225966 0.0312998,-0.0327563 0.0552214,-0.0353442 0.0269032,-0.0429956 0.00595511,-0.0687985 -0.0356956,-0.0919121 0.000290027,-0.000433446 -0.00616546,-0.0063033 0.000425479,-0.00921313 0.0359617,-0.0159666 0.0769001,-0.0136153 0.112635,0.00166765 0.00824186,-0.00608817 0.0433175,-0.0455111 0.0447549,-0.0452625 0.0428188,0.00758053 0.0750285,0.0333802 0.0920062,0.0733728 0.0206787,-0.0101844 0.0376843,-0.0204453 0.0482496,-0.0324097 0.0433869,-0.0491229 -0.0366183,-0.0959191 -0.0767598,-0.101093 -0.00666663,-0.000840599 -0.00537824,-0.011064 0.00129476,-0.0102242 0.037117,0.00478624 0.0729895,0.0252562 0.0918938,0.0582356 0.0795525,-0.0401599 -0.0118608,-0.105555 -0.0553664,-0.124754 0.000231862,-0.00058324 -0.00539418,-0.00374963 -0.00189952,-0.00800043 0.0379138,-0.0459652 0.0199696,-0.108287 -0.0465716,-0.104129 -0.0519283,0.00204612 -0.133461,-0.0237495 -0.124755,-0.0899808 0.00986091,-0.0750603 0.120282,-0.0845842 0.176554,-0.0813094 -0.0560054,-0.0468624 -0.0495452,-0.105182 -0.00326758,-0.155833 -0.0733345,-0.00939638 -0.175237,-0.00249152 -0.261563,0.0234675 -0.0552126,0.0166032 -0.12964,0.0479564 -0.156001,0.104778 -0.0341451,0.0694024 -0.137634,0.104616 -0.208944,0.0799087 0.0260896,0.109342 0.131996,0.104155 0.213661,0.0723146l2.39033e-006 3.98388e-006 3.26678e-005 -8.76454e-006 0 -2.39033e-006 2.94807e-005 -9.56132e-006 0 -1.59355e-006 3.18711e-005 -9.56132e-006 0 -2.39033e-006 3.02775e-005 -8.76454e-006 0 -2.39033e-006 3.18711e-005 -9.56132e-006 0 -2.39033e-006 3.02775e-005 -8.76454e-006 0 -2.39033e-006 3.18711e-005 -9.56132e-006 0 -1.59355e-006 3.02775e-005 -7.17099e-006 0 -2.39033e-006 3.18711e-005 -9.56132e-006 0 -1.59355e-006 3.18711e-005 -7.17099e-006 0 -2.39033e-006 3.02775e-005 -7.17099e-006 0 -1.59355e-006 3.18711e-005 -9.56132e-006 0 -2.39033e-006 3.18711e-005 -7.17099e-006 0 -1.59355e-006 3.26678e-005 -7.17099e-006 0 -2.39033e-006 3.18711e-005 -7.17099e-006 0 -1.59355e-006 3.18711e-005 -7.17099e-006 0 -2.39033e-006 0.000129078 -3.18711e-005 0 -2.39033e-006 0.000128281 -2.78872e-005 0 -2.39033e-006 0.000129078 -2.47001e-005 0 -2.39033e-006 0.000128281 -2.07162e-005 0 -2.39033e-006 0.000128281 -1.83259e-005 0 -2.39033e-006 0.000129078 -1.35452e-005 0 -2.39033e-006 0.000128281 -1.19516e-005 0 -1.59355e-006 0.000129078 -7.17099e-006 0 -2.39033e-006 0.000128281 -4.78066e-006 0 -2.39033e-006 0.000381656 -2.39033e-006 0 2.39033e-006 0.000128281 2.39033e-006 0 2.39033e-006 0.000124297 7.17099e-006 0 2.39033e-006 0.000125891 8.76454e-006 0 2.39033e-006 0.000124297 1.35452e-005 0 2.39033e-006 0.000125891 1.4342e-005 0 1.59355e-006 0.000121907 1.83259e-005 0 2.39033e-006 0.000124297 2.31065e-005 0 2.39033e-006 0.00012111 2.54968e-005 0 2.39033e-006 0.000121907 2.47001e-005 0 2.39033e-006 0.000119516 3.26678e-005 0 1.59355e-006 0.000119516 3.26678e-005 0 2.39033e-006 0.000117126 3.66517e-005 0 2.39033e-006 0.000117126 3.9042e-005 0 2.39033e-006 0.000117126 4.06356e-005 0 2.39033e-006 0.000114736 4.38227e-005 0 2.39033e-006 0.000112345 4.6213e-005 0 1.59355e-006 0.000112345 5.09937e-005 0 2.39033e-006 0.000113142 5.25872e-005 0 2.39033e-006 0.000109955 5.49776e-005 0 2.39033e-006 0.000107565 5.73679e-005 0 2.39033e-006 0.000105971 5.97582e-005 0 2.39033e-006 0.000105971 6.21486e-005 0 1.59355e-006 0.000105174 6.45389e-005 0 2.39033e-006 0.000101191 6.85228e-005 0 2.39033e-006 0.000101191 6.93195e-005 0 2.39033e-006 9.88003e-005 7.33034e-005 0 2.39033e-006 9.64099e-005 7.33034e-005 0 2.39033e-006 9.64099e-005 7.80841e-005 0 2.39033e-006 9.40196e-005 8.04744e-005 0 2.39033e-006 8.9239e-005 7.96776e-005 0 2.39033e-006 9.00357e-005 8.52551e-005 0 2.39033e-006 8.9239e-005 8.68486e-005c0,0.0245399 0.0390436,0.0597829 0.0537362,0.0704613zm-0.168662 -0.0411264c0.0246658,0.0600722 0.102707,0.0610458 0.154948,0.0436665 -0.0205736,-0.0165204 -0.0384556,-0.0372525 -0.0470377,-0.0626234 -0.034306,0.0128918 -0.0710398,0.0218596 -0.107911,0.0189569zm0.0412619 0.15519c-0.0250929,-0.0169658 -0.0592985,-0.0296098 -0.084644,-0.00604196 0.0226842,0.00586507 0.0391815,0.0203807 0.0426283,0.0442474l0.000307556 -0.000156168 0 -2.39033e-006 0.000342614 -0.000174494 0 -2.39033e-006c0.0114433,-0.00490257 0.0462776,-0.020803 0.0413654,-0.03787zm0.257045 0.265073c-0.0184581,0.00225089 -0.0357848,0.00974617 -0.0445247,0.027229 0.015365,0.00637262 0.0288935,0.0172988 0.0290497,0.0352868 0.0266976,-0.0136958 0.0295246,-0.0381003 0.015475,-0.0625159zm-0.267409 0.00960594c0.00436315,-0.0143412 0.00460855,-0.0342 -0.0113421,-0.041579l0 -1.59355e-006c-0.0337299,-0.015483 -0.0437127,0.0309022 -0.0350343,0.0544589 0.00902748,-0.014789 0.0316081,-0.0142719 0.0463764,-0.0128783zm0.505977 -0.744106c0.000165729,0.00148121 -0.000307556,0.00302377 -0.00142623,0.00417431 -0.0522956,0.0535298 -0.0547648,0.111158 0.00886892,0.156357 0.00928962,0.000925057 0.0189322,0.00215847 0.028931,0.00371298 -0.018055,-0.0452187 -0.0183418,-0.0820026 -0.0015322,-0.128374 0.0180502,-0.0498718 -0.0213337,-0.0876454 -0.0600722,-0.111214 -0.00283812,0.00654074 -0.0154383,0.0128695 -0.0163849,0.0186199 0.0190812,0.0124743 0.0416642,0.0309301 0.0416642,0.0560373l-2.39033e-006 0 -4.6213e-005 0.000686821zm-0.351594 -0.149383c-0.00664591,0.00105174 -0.00825779,-0.00913026 -0.00161666,-0.010182 0.0403113,-0.00648974 0.0820034,-0.0168327 0.117529,-0.0376636 0.00580531,-0.00339905 0.0110138,0.00549537 0.00521331,0.00889202 -0.0366581,0.0214962 -0.0795159,0.0322575 -0.121125,0.0389536zm1.11122 -0.683778c-0.036768,0 -0.0738189,-0.0021011 -0.109734,0.00286122 -0.016769,0.0112138 -0.0141715,0.0515642 0.00961948,0.0515642l0.100115 0c0.0042277,0 0.0083797,-0.0013848 0.0117349,-0.00396396l3.98388e-006 4.78066e-006c0.0141045,-0.0109127 0.010966,-0.0504662 -0.0117389,-0.0504662z"/>
 </g>
</svg>
